<?xml version="1.0" encoding="UTF-8"?>
<svg width="56px" height="55px" viewBox="0 0 56 55" version="1.1" xmlns="http://www.w3.org/2000/svg" xmlns:xlink="http://www.w3.org/1999/xlink">
    <!-- Generator: Sketch 3.8.1 (29687) - http://www.bohemiancoding.com/sketch -->
    <title>Python-logo-notext</title>
    <desc>Created with Sketch.</desc>
    <defs>
        <linearGradient x1="12.9593594%" y1="11.6996305%" x2="79.6388325%" y2="78.4532626%" id="linearGradient-1">
            <stop stop-color="#61DAFB" offset="0%"></stop>
            <stop stop-color="#61DAFB" offset="100%"></stop>
        </linearGradient>
    </defs>
    <g id="Page-1" stroke="none" stroke-width="1" fill="none" fill-rule="evenodd">
        <g id="Python-logo-notext" fill="url(#linearGradient-1)">
            <g id="svg2169">
                <g id="layer1" transform="translate(0.314321, 0.134085)">
                    <g id="g1894" transform="translate(0.208220, 0.124802)">
                        <path d="M27.4180328,0.228429204 C13.6319351,0.228430178 14.4928279,6.15235988 14.4928279,6.15235988 L14.5081967,12.2894912 L27.6639344,12.2894912 L27.6639344,14.1321534 L9.28278689,14.1321534 C9.28278689,14.1321534 0.461065574,13.1408189 0.461065574,26.9241888 C0.46106459,40.7075558 8.16086066,40.2187684 8.16086066,40.2187684 L12.7561475,40.2187684 L12.7561475,33.8227507 C12.7561475,33.8227507 12.5084498,26.1932153 20.3329918,26.1932153 L33.3811475,26.1932153 C33.3811475,26.1932153 40.7120902,26.3106389 40.7120902,19.1728245 L40.7120902,7.37064897 C40.7120902,7.37064799 41.8251295,0.228429204 27.4180328,0.228429204 L27.4180328,0.228429204 Z M20.1639344,4.35538348 C21.4728339,4.35538251 22.5307377,5.40363401 22.5307377,6.70058997 C22.5307387,7.99754593 21.4728339,9.04579646 20.1639344,9.04579646 C18.8550349,9.04579743 17.7971311,7.99754593 17.7971311,6.70058997 C17.7971302,5.40363401 18.8550349,4.35538348 20.1639344,4.35538348 L20.1639344,4.35538348 Z" id="path8615"></path>
                        <path d="M27.8095574,53.7581511 C41.595659,53.7581511 40.7347623,47.8342204 40.7347623,47.8342204 L40.7193934,41.6970891 L27.5636557,41.6970891 L27.5636557,39.8544269 L45.9448033,39.8544269 C45.9448033,39.8544269 54.7665246,40.8457585 54.7665246,27.0623866 C54.7665295,13.2790211 47.0667295,13.7678084 47.0667295,13.7678084 L42.4714426,13.7678084 L42.4714426,20.1638247 C42.4714426,20.1638247 42.7191443,27.7933601 34.8945984,27.7933601 L21.8464416,27.7933601 C21.8464416,27.7933601 14.515499,27.6759365 14.515499,34.8137558 L14.515499,46.6159313 C14.515499,46.6159313 13.4024597,53.7581511 27.8095574,53.7581511 L27.8095574,53.7581511 Z M35.0636557,49.6311968 C33.7547557,49.6311968 32.6968525,48.5829468 32.6968525,47.2859903 C32.6968525,45.9890339 33.7547557,44.9407838 35.0636557,44.9407838 C36.3725557,44.9407838 37.430459,45.9890339 37.430459,47.2859903 C37.4304639,48.5829468 36.3725557,49.6311968 35.0636557,49.6311968 L35.0636557,49.6311968 Z" id="path8620"></path>
                    </g>
                </g>
            </g>
        </g>
    </g>
</svg>